<?xml version="1.0" standalone="no"?>
<!DOCTYPE svg PUBLIC "-//W3C//DTD SVG 20010904//EN"
 "http://www.w3.org/TR/2001/REC-SVG-20010904/DTD/svg10.dtd">
<svg version="1.0" xmlns="http://www.w3.org/2000/svg"
 width="512.000000pt" height="512.000000pt" viewBox="0 0 512.000000 512.000000"
 preserveAspectRatio="xMidYMid meet">
<metadata>
Created by potrace 1.14, written by Peter Selinger 2001-2017
</metadata>
<g transform="translate(0.000000,512.000000) scale(0.100000,-0.100000)"
fill="#000000" stroke="none">
<path d="M865 4941 c-48 -22 -79 -54 -100 -103 -12 -31 -15 -91 -15 -352 l0
-315 784 0 783 0 -1 322 c-1 292 -3 325 -20 357 -24 46 -73 88 -116 100 -21 6
-279 10 -655 10 -581 0 -622 -2 -660 -19z"/>
<path d="M2825 4941 c-48 -22 -79 -54 -100 -103 -12 -31 -15 -91 -15 -352 l0
-314 783 1 782 2 1 310 c0 187 -4 323 -10 344 -14 46 -77 108 -123 120 -25 7
-257 11 -658 11 -581 0 -622 -2 -660 -19z"/>
<path d="M752 2598 l3 -1182 780 -1 780 0 0 1180 0 1180 -783 3 -782 2 2
-1182z m1038 778 c138 -45 178 -244 67 -337 -54 -45 -89 -50 -337 -47 -215 3
-238 5 -275 24 -53 27 -94 90 -102 153 -11 96 62 195 155 210 54 9 463 6 492
-3z"/>
<path d="M2710 2599 c0 -648 3 -1179 8 -1180 21 -3 1529 -4 1543 -1 14 3 16
112 15 1180 l-1 1177 -782 2 -783 2 0 -1180z m1067 763 c138 -72 143 -267 8
-344 -38 -22 -50 -23 -282 -25 -250 -3 -269 -1 -322 39 -92 70 -103 207 -23
291 57 60 73 63 357 62 205 -1 223 -3 262 -23z"/>
<path d="M767 1022 c-16 -3 -17 -30 -17 -327 l1 -324 26 -38 c28 -41 43 -55
88 -80 27 -15 89 -17 650 -18 341 -1 636 3 655 8 46 12 93 48 122 94 23 38 23
41 24 361 1 322 1 322 -20 323 -84 2 -1516 3 -1529 1z"/>
<path d="M2727 1022 c-16 -3 -17 -31 -17 -317 0 -344 2 -355 62 -414 18 -17
52 -37 75 -44 55 -16 1264 -16 1304 0 37 16 87 61 107 97 14 27 17 72 18 354
l1 322 -41 1 c-176 2 -1496 3 -1509 1z"/>
</g>
</svg>
