<svg width="512" height="512" viewBox="0 0 512 512" fill="none" xmlns="http://www.w3.org/2000/svg">
<g clip-path="url(#clip0_10_648)">
<path fill-rule="evenodd" clip-rule="evenodd" d="M97.9167 15.5834C77.3804 15.5834 60.75 32.2137 60.75 52.75V112.5H248V52.75C248 32.2137 231.37 15.5834 210.833 15.5834H97.9167ZM256 24.6807C246.617 9.61004 229.901 -0.416626 210.833 -0.416626H97.9167C68.5438 -0.416626 44.75 23.3772 44.75 52.75V120.5V391.5V459.25C44.75 488.623 68.5438 512.417 97.9167 512.417H210.833C229.901 512.417 246.617 502.39 256 487.319C265.383 502.39 282.099 512.417 301.167 512.417H414.083C443.456 512.417 467.25 488.623 467.25 459.25V391.5V120.5V52.75C467.25 23.3772 443.456 -0.416625 414.083 -0.416625H301.167C282.099 -0.416625 265.383 9.61004 256 24.6807ZM451.25 112.5V52.75C451.25 32.2137 434.62 15.5834 414.083 15.5834H301.167C280.63 15.5834 264 32.2137 264 52.75V112.5H451.25ZM264 128.5H451.25V383.5H264V128.5ZM264 399.5V459.25C264 479.786 280.63 496.417 301.167 496.417H414.083C434.62 496.417 451.25 479.786 451.25 459.25V399.5H264ZM248 459.25V399.5H60.75V459.25C60.75 479.786 77.3804 496.417 97.9167 496.417H210.833C231.37 496.417 248 479.786 248 459.25ZM248 383.5V128.5H60.75V383.5H248Z" fill="white"/>
</g>
<defs>
<clipPath id="clip0_10_648">
<rect width="512" height="512" fill="white"/>
</clipPath>
</defs>
</svg>
